<svg width="28" height="28" viewBox="0 0 28 28" fill="none" xmlns="http://www.w3.org/2000/svg">
<path fill-rule="evenodd" clip-rule="evenodd" d="M13.9997 4.5C10.0417 4.50001 6.83308 7.70864 6.83308 11.6667V16.0095C6.83308 16.4827 6.64475 16.9357 6.31101 17.2694L5.85659 17.7239C5.78312 17.7973 5.7438 17.8369 5.7155 17.8671C5.70414 17.8792 5.6981 17.8861 5.69553 17.8891C5.68264 17.9079 5.6736 17.9294 5.66924 17.9529C5.66893 17.9569 5.66834 17.9659 5.66784 17.982C5.66652 18.0236 5.66641 18.0792 5.66641 18.1836C5.66641 18.4198 5.66678 18.5555 5.67246 18.6558C5.67477 18.6966 5.67752 18.7198 5.67903 18.7304C5.69587 18.7711 5.72848 18.8039 5.76964 18.8209C5.78018 18.8224 5.80293 18.8251 5.84279 18.8273C5.94209 18.833 6.07643 18.8333 6.31089 18.8333H10.4997H17.4997H21.6887C21.9231 18.8333 22.0577 18.833 22.1573 18.8273C22.1973 18.825 22.2202 18.8224 22.2308 18.8209C22.2706 18.8043 22.303 18.7723 22.3201 18.7305C22.3216 18.72 22.3244 18.6968 22.3267 18.6558C22.3324 18.5555 22.3327 18.4198 22.3327 18.1836C22.3327 18.0798 22.3326 18.0241 22.3312 17.9829C22.3307 17.9663 22.3301 17.9571 22.3298 17.9532C22.3252 17.928 22.316 17.9067 22.3043 17.8894C22.3016 17.8863 22.2955 17.8794 22.2844 17.8676C22.2557 17.8371 22.2163 17.7975 22.1427 17.7239L21.6883 17.2694C21.3542 16.9353 21.1664 16.4821 21.1664 16.0095V11.6667C21.1664 7.70862 17.9578 4.49999 13.9997 4.5ZM4.83308 11.6667C4.83308 6.60406 8.93714 2.50001 13.9997 2.5C19.0624 2.49999 23.1664 6.60405 23.1664 11.6667V15.9191L23.557 16.3097C23.5663 16.319 23.5757 16.3284 23.5853 16.338C23.6948 16.4472 23.8218 16.5738 23.9267 16.7198L23.1144 17.3031L23.9267 16.7198C24.123 16.9933 24.2503 17.3061 24.3039 17.6326L23.3171 17.7945L24.3039 17.6326C24.3332 17.8109 24.333 17.989 24.3328 18.1464C24.3328 18.1589 24.3327 18.1713 24.3327 18.1836C24.3327 18.215 24.3328 18.2469 24.3329 18.2792C24.334 18.6257 24.3352 19.0153 24.2191 19.3594C24.0033 19.9991 23.5018 20.5033 22.8595 20.7199C22.5161 20.8358 22.1272 20.8346 21.7835 20.8335C21.7515 20.8334 21.7198 20.8333 21.6887 20.8333H18.4997V21C18.4997 23.4853 16.485 25.5 13.9997 25.5C11.5145 25.5 9.49974 23.4853 9.49974 21V20.8333H6.31089C6.27972 20.8333 6.24809 20.8334 6.21607 20.8335C5.87231 20.8346 5.48427 20.8357 5.1409 20.7199C4.50019 20.5038 3.9964 20.0007 3.78006 19.3593L4.7276 19.0397L3.78006 19.3593C3.664 19.0152 3.66517 18.6257 3.66622 18.2793C3.66631 18.247 3.66641 18.2151 3.66641 18.1836C3.66641 18.1705 3.66639 18.1571 3.66637 18.1436C3.66614 17.9883 3.66588 17.8101 3.69501 17.6326C3.74895 17.3039 3.87782 16.9915 4.07287 16.7199C4.17819 16.5732 4.30453 16.4472 4.41569 16.3363C4.42469 16.3273 4.43359 16.3184 4.44238 16.3097L4.83308 15.919V11.6667ZM11.4997 20.8333V21C11.4997 22.3807 12.619 23.5 13.9997 23.5C15.3805 23.5 16.4997 22.3807 16.4997 21V20.8333H11.4997Z" fill="currentColor"/>
<path d="M20.5 2C22.433 2 24 3.567 24 5.5C24 7.43301 22.433 9 20.5 9C18.567 9 17 7.43301 17 5.5C17 3.567 18.567 2 20.5 2Z" fill="#FF4400"/>
</svg>
