<svg width="28" height="28" viewBox="0 0 28 28" fill="none" xmlns="http://www.w3.org/2000/svg">
<path fill-rule="evenodd" clip-rule="evenodd" d="M14.7178 2.52771C14.4809 2.50935 14.2414 2.5 13.9997 2.5C8.93714 2.50001 4.83308 6.60406 4.83308 11.6667V15.919L4.44238 16.3097L4.41569 16.3363L4.41568 16.3363C4.30452 16.4472 4.17819 16.5732 4.07287 16.7199C3.87782 16.9915 3.74895 17.3039 3.69501 17.6326C3.66588 17.8101 3.66614 17.9883 3.66637 18.1436L3.66641 18.1836L3.66622 18.2793C3.66517 18.6257 3.664 19.0152 3.78006 19.3593L4.7276 19.0397L3.78006 19.3593C3.9964 20.0007 4.50019 20.5038 5.1409 20.7199C5.48427 20.8357 5.87231 20.8346 6.21607 20.8335L6.31089 20.8333H9.49974V21C9.49974 23.4853 11.5145 25.5 13.9997 25.5C16.485 25.5 18.4997 23.4853 18.4997 21V20.8333H21.6887L21.7835 20.8335C22.1272 20.8346 22.5161 20.8358 22.8595 20.7199C23.5018 20.5033 24.0033 19.9991 24.2191 19.3594C24.3352 19.0153 24.334 18.6257 24.3329 18.2792L24.3327 18.1836L24.3328 18.1464C24.333 17.989 24.3332 17.8109 24.3039 17.6326L23.3171 17.7945L24.3039 17.6326C24.2503 17.3061 24.123 16.9933 23.9267 16.7198L23.1144 17.3031L23.9267 16.7198C23.8218 16.5738 23.6948 16.4472 23.5853 16.338L23.557 16.3097L23.1664 15.9191V11.6667C23.1664 11.5879 23.1654 11.5093 23.1634 11.431C22.5433 11.7099 21.8715 11.8944 21.1664 11.9663V16.0095C21.1664 16.4821 21.3542 16.9353 21.6883 17.2694L22.1427 17.7239C22.2163 17.7975 22.2557 17.8371 22.2844 17.8676C22.2906 17.8742 22.2952 17.8792 22.2985 17.8829C22.3012 17.8859 22.3031 17.888 22.3043 17.8894C22.316 17.9067 22.3252 17.928 22.3298 17.9532C22.3301 17.9571 22.3307 17.9663 22.3312 17.9829C22.3326 18.0241 22.3327 18.0798 22.3327 18.1836C22.3327 18.4198 22.3324 18.5555 22.3267 18.6558C22.3244 18.6968 22.3216 18.72 22.3201 18.7305C22.303 18.7723 22.2706 18.8043 22.2308 18.8209C22.2202 18.8224 22.1973 18.825 22.1573 18.8273C22.0577 18.833 21.9231 18.8333 21.6887 18.8333H17.4997H10.4997H6.31089C6.07643 18.8333 5.94209 18.833 5.84279 18.8273C5.80293 18.8251 5.78018 18.8224 5.76964 18.8209C5.72848 18.8039 5.69587 18.7711 5.67903 18.7304C5.67752 18.7198 5.67477 18.6966 5.67246 18.6558C5.66678 18.5555 5.66641 18.4198 5.66641 18.1836C5.66641 18.0792 5.66652 18.0236 5.66784 17.982C5.66834 17.9659 5.66893 17.9569 5.66924 17.9529C5.6736 17.9294 5.68264 17.9079 5.69553 17.8891C5.6981 17.8861 5.70414 17.8792 5.7155 17.8671C5.7438 17.8369 5.78312 17.7973 5.85659 17.7239L6.31101 17.2694C6.64475 16.9357 6.83308 16.4827 6.83308 16.0095V11.6667C6.83308 7.70864 10.0417 4.50001 13.9997 4.5C14.0253 4.5 14.0509 4.50014 14.0764 4.5004C14.1846 3.79961 14.4047 3.13577 14.7178 2.52771ZM20.6526 8.99674C19.9722 7.30314 18.664 5.9294 17.0159 5.16372C17.0825 4.46527 17.3544 3.82669 17.7705 3.30898C19.9486 4.29321 21.6732 6.10386 22.5445 8.34108C22.0079 8.72795 21.3572 8.96652 20.6526 8.99674ZM11.4997 21V20.8333H16.4997V21C16.4997 22.3807 15.3805 23.5 13.9997 23.5C12.619 23.5 11.4997 22.3807 11.4997 21Z" fill="currentColor"/>
<path d="M20.5 2C22.433 2 24 3.567 24 5.5C24 7.43301 22.433 9 20.5 9C18.567 9 17 7.43301 17 5.5C17 3.567 18.567 2 20.5 2Z" fill="#FF4400"/>
</svg>
