<svg width="28" height="28" viewBox="0 0 28 28" fill="none" xmlns="http://www.w3.org/2000/svg">
<path fill-rule="evenodd" clip-rule="evenodd" d="M13.9998 4.5C10.0418 4.50001 6.83317 7.70864 6.83317 11.6667V16.0095C6.83317 16.4827 6.64484 16.9357 6.3111 17.2694L5.85668 17.7239C5.78322 17.7973 5.74389 17.8369 5.7156 17.8671C5.70424 17.8792 5.69819 17.8861 5.69562 17.8891C5.68274 17.9079 5.67369 17.9294 5.66933 17.9529C5.66902 17.9569 5.66844 17.9659 5.66793 17.982C5.66662 18.0236 5.6665 18.0792 5.6665 18.1836C5.6665 18.4198 5.66688 18.5555 5.67255 18.6558C5.67487 18.6966 5.67762 18.7198 5.67913 18.7304C5.69596 18.7711 5.72857 18.8039 5.76973 18.8209C5.78028 18.8224 5.80303 18.8251 5.84288 18.8273C5.94219 18.833 6.07653 18.8333 6.31098 18.8333L6.31099 19.8333V18.8333H10.4998H17.4998L21.6888 18.8333C21.9232 18.8333 22.0578 18.833 22.1574 18.8273C22.1974 18.825 22.2203 18.8224 22.2309 18.8209C22.2707 18.8043 22.3031 18.7723 22.3202 18.7305C22.3217 18.72 22.3245 18.6968 22.3268 18.6558C22.3325 18.5555 22.3328 18.4198 22.3328 18.1836C22.3328 18.0798 22.3327 18.0241 22.3313 17.9829C22.3308 17.9663 22.3302 17.9571 22.3299 17.9532C22.3253 17.928 22.3161 17.9067 22.3044 17.8894C22.3017 17.8863 22.2956 17.8794 22.2845 17.8676C22.2558 17.8371 22.2164 17.7975 22.1428 17.7239L21.6884 17.2694C21.3543 16.9353 21.1665 16.4821 21.1665 16.0095V11.6667C21.1665 7.70862 17.9579 4.49999 13.9998 4.5ZM4.83317 11.6667C4.83317 6.60406 8.93724 2.50001 13.9998 2.5C19.0625 2.49999 23.1665 6.60405 23.1665 11.6667V15.9191L23.5571 16.3097C23.5664 16.319 23.5758 16.3284 23.5854 16.338C23.6949 16.4472 23.8219 16.5738 23.9268 16.7198L23.1145 17.3031L23.9268 16.7198C24.1231 16.9933 24.2504 17.3061 24.304 17.6326L23.4461 17.7734L24.304 17.6326C24.3333 17.8109 24.3331 17.989 24.3329 18.1464C24.3329 18.1589 24.3328 18.1713 24.3328 18.1836C24.3328 18.215 24.3329 18.247 24.333 18.2792C24.3341 18.6257 24.3353 19.0153 24.2192 19.3594C24.0034 19.9991 23.5019 20.5033 22.8596 20.7199C22.5162 20.8358 22.1273 20.8346 21.7836 20.8335C21.7516 20.8334 21.7199 20.8333 21.6888 20.8333H17.4998H10.4998H6.31099C6.27981 20.8333 6.24818 20.8334 6.21617 20.8335C5.87241 20.8346 5.48436 20.8357 5.141 20.7199C4.50028 20.5038 3.99649 20.0007 3.78015 19.3593C3.6641 19.0153 3.66527 18.6257 3.66631 18.2793C3.66641 18.247 3.6665 18.2151 3.6665 18.1836C3.6665 18.1705 3.66648 18.1571 3.66646 18.1436C3.66623 17.9883 3.66597 17.8101 3.6951 17.6326C3.74904 17.3039 3.87791 16.9915 4.07297 16.7199C4.17829 16.5732 4.30463 16.4472 4.41579 16.3363C4.42479 16.3273 4.43369 16.3184 4.44247 16.3097L4.83317 15.919V11.6667Z" fill="currentColor"/>
<path d="M17.4998 19.8333V21C17.4998 22.933 15.9328 24.5 13.9998 24.5C12.0668 24.5 10.4998 22.933 10.4998 21V19.8333M17.4998 19.8333H10.4998M17.4998 19.8333H21.6888C22.135 19.8333 22.3592 19.8333 22.5399 19.7724C22.8851 19.6559 23.1552 19.3849 23.2716 19.0397C23.3328 18.8583 23.3328 18.6334 23.3328 18.1836C23.3328 17.9868 23.3326 17.8884 23.3172 17.7945C23.2881 17.6172 23.2193 17.4491 23.1145 17.3031C23.0591 17.226 22.9887 17.1556 22.85 17.0168L22.3955 16.5623C22.2489 16.4157 22.1665 16.2168 22.1665 16.0095V11.6667C22.1665 7.15633 18.5102 3.49999 13.9998 3.5C9.48952 3.50001 5.83317 7.15635 5.83317 11.6667V16.0095C5.83317 16.2169 5.75062 16.4157 5.604 16.5623L5.14958 17.0168C5.01039 17.1559 4.94072 17.2259 4.88525 17.3031C4.78044 17.4491 4.71101 17.6172 4.6819 17.7945C4.6665 17.8884 4.6665 17.9868 4.6665 18.1836C4.6665 18.6334 4.6665 18.8583 4.7277 19.0397C4.84413 19.3849 5.11543 19.6559 5.46061 19.7724C5.64132 19.8333 5.86469 19.8333 6.31099 19.8333H10.4998" stroke="currentColor" stroke-width="2" stroke-linecap="round" stroke-linejoin="round"/>
</svg>
