<svg width="28" height="28" viewBox="-2 -1 26 26" fill="none" xmlns="http://www.w3.org/2000/svg">
<path fill-rule="evenodd" clip-rule="evenodd" d="M10.0927 2.67866C10.3536 2.93951 10.4496 3.32279 10.3426 3.67583C10.12 4.41019 10 5.19013 10 6.00003C10 10.4183 13.5817 14 18 14C18.8102 14 19.5902 13.8803 20.3243 13.6578C20.6774 13.5508 21.0606 13.6468 21.3215 13.9077C21.5823 14.1685 21.6784 14.5518 21.5714 14.9048C20.3271 19.0103 16.514 21.9999 12 21.9999C6.47719 21.9999 2 17.523 2 12.0002C2 7.48611 4.99017 3.67307 9.09554 2.42876C9.44858 2.32176 9.83186 2.41781 10.0927 2.67866ZM8.04516 5.04417C5.62856 6.42119 4 9.02138 4 12.0002C4 16.4184 7.58168 19.9999 12 19.9999C14.9789 19.9999 17.5792 18.3715 18.9561 15.9549C18.6413 15.9848 18.3223 16 18 16C12.4772 16 8 11.5229 8 6.00003C8 5.67777 8.01528 5.35892 8.04516 5.04417Z" fill="currentColor" stroke="currentColor"/>
</svg>
