<svg width="28" height="28" viewBox="0 0 28 28" fill="none" xmlns="http://www.w3.org/2000/svg">
<path fill-rule="evenodd" clip-rule="evenodd" d="M14.0817 1.3335H13.9984H13.9984C13.4126 1.33348 12.9076 1.33346 12.4869 1.37176C12.0372 1.4127 11.6089 1.50217 11.1923 1.7237C11.0297 1.81018 10.8745 1.90999 10.7283 2.02211C10.354 2.30932 10.0949 2.66187 9.87117 3.05407C9.66181 3.42102 9.45236 3.88057 9.20941 4.41358L9.19197 4.45186L8.75203 5.41699H3.5C2.94772 5.41699 2.5 5.86471 2.5 6.41699C2.5 6.96928 2.94772 7.41699 3.5 7.41699H4.30858L4.9603 18.2126C5.04801 19.6656 5.11814 20.8276 5.26437 21.7577C5.41483 22.7147 5.65865 23.5249 6.15436 24.2372C6.60388 24.8832 7.18302 25.4284 7.85488 25.8382C8.59577 26.2901 9.41919 26.4846 10.3835 26.5771C11.3207 26.667 12.4848 26.667 13.9403 26.667H13.9403H13.9403H13.9404H13.9405H14.0426H14.0427H14.0427H14.0428H14.0428C15.4964 26.667 16.6589 26.667 17.595 26.5773C18.5582 26.4849 19.3808 26.2907 20.1211 25.8397C20.7925 25.4307 21.3715 24.8864 21.8212 24.2415C22.317 23.5304 22.5616 22.7214 22.7132 21.7657C22.8606 20.8369 22.9323 19.6765 23.022 18.2256L23.6901 7.41699H24.5C25.0523 7.41699 25.5 6.96928 25.5 6.41699C25.5 5.86471 25.0523 5.41699 24.5 5.41699H22.7497H22.7485H19.3585L18.8173 4.3006C18.5681 3.78651 18.3531 3.34291 18.1406 2.98886C17.9134 2.61031 17.6533 2.27071 17.2834 1.99484C17.1388 1.887 16.9857 1.79107 16.8256 1.708C16.416 1.4955 15.9969 1.40958 15.5572 1.37024C15.1459 1.33346 14.653 1.33348 14.0817 1.3335H14.0817ZM18.721 7.41699H18.7442H21.6863L21.0289 18.0513C20.9354 19.5648 20.8685 20.6293 20.7379 21.4523C20.6099 22.2593 20.4338 22.7345 20.1806 23.0976C19.8897 23.5149 19.515 23.867 19.0806 24.1317C18.7026 24.362 18.2175 24.5084 17.4041 24.5864C16.5746 24.666 15.508 24.667 13.9916 24.667C12.4732 24.667 11.4051 24.666 10.5745 24.5863C9.76016 24.5081 9.27455 24.3614 8.89631 24.1307C8.46157 23.8656 8.08684 23.5128 7.79597 23.0948C7.5429 22.7311 7.36717 22.2553 7.2401 21.4471C7.11052 20.6228 7.04509 19.5568 6.95359 18.0411L6.31222 7.41699H9.38177C9.39037 7.4171 9.39896 7.4171 9.40754 7.41699H18.721ZM17.1359 5.41699L17.0356 5.21005C16.7634 4.64852 16.5868 4.28639 16.4258 4.01814C16.2744 3.76592 16.1741 3.6625 16.0877 3.59804C16.0298 3.5549 15.9686 3.51653 15.9045 3.4833C15.8088 3.43365 15.672 3.3885 15.379 3.36229C15.0674 3.33442 14.6645 3.3335 14.0405 3.3335C13.4008 3.3335 12.9875 3.33445 12.6682 3.36352C12.3678 3.39087 12.2284 3.43796 12.1313 3.48958C12.0662 3.52417 12.0042 3.5641 11.9457 3.60894C11.8585 3.67586 11.7578 3.7832 11.6083 4.04519C11.4494 4.32368 11.2771 4.6994 11.0118 5.2814L10.95 5.41699H17.1359ZM11.0835 20.25C10.5312 20.25 10.0835 19.8023 10.0835 19.25L10.0835 12.25C10.0835 11.6977 10.5312 11.25 11.0835 11.25C11.6358 11.25 12.0835 11.6977 12.0835 12.25V19.25C12.0835 19.8023 11.6358 20.25 11.0835 20.25ZM17.9165 12.25C17.9165 11.6977 17.4688 11.25 16.9165 11.25C16.3642 11.25 15.9165 11.6977 15.9165 12.25V19.25C15.9165 19.8023 16.3642 20.25 16.9165 20.25C17.4688 20.25 17.9165 19.8023 17.9165 19.25V12.25Z" fill="currentColor"/>
</svg>
