<svg width="28" height="28" viewBox="0 0 28 28" fill="none" xmlns="http://www.w3.org/2000/svg">
<path fill-rule="evenodd" clip-rule="evenodd" d="M18.6304 6.15398C18.6177 6.16236 18.5913 6.18117 18.548 6.21796C18.4378 6.31145 18.2982 6.44998 18.0562 6.69199L18.0511 6.69702L15.4145 9.33363L18.667 12.5861L21.3066 9.94643L21.3076 9.94544C21.3076 9.94544 22.3123 8.88675 21.8464 9.37041M21.8464 9.37041C21.838 9.38311 21.8192 9.40957 21.7823 9.45305C21.6898 9.56197 22.0833 9.13342 21.8464 9.37041ZM21.8464 9.37041C21.8518 9.34621 21.8518 9.32111 21.8464 9.29697C21.838 9.28425 21.8191 9.25768 21.782 9.21398C21.6882 9.10352 21.5493 8.96345 21.3066 8.72078L19.2768 6.69101C19.0351 6.44933 18.8958 6.31104 18.7858 6.21772C18.7427 6.1811 18.7163 6.16235 18.7037 6.15397C18.6795 6.14854 18.6545 6.14855 18.6304 6.15398M17.2528 14.0003L14.0003 10.7478L5.66699 19.0812V22.3336L8.91944 22.3336L17.2528 14.0003ZM17.9975 4.25595C18.4327 4.11455 18.9014 4.11455 19.3366 4.25595C19.645 4.35615 19.8844 4.52684 20.08 4.69294C20.26 4.84572 20.4578 5.0435 20.6673 5.2531L22.7208 7.30657L22.7445 7.33029C22.9551 7.54081 23.1535 7.73918 23.3067 7.91961C23.4731 8.1157 23.6441 8.35539 23.7444 8.66417C23.8859 9.0994 23.8858 9.56815 23.7444 10.0032C23.6441 10.3118 23.4733 10.5514 23.307 10.7473C23.154 10.9276 22.9558 11.1257 22.7456 11.3359L22.7218 11.3597L22.7208 11.3606L22.7121 11.3694L10.0408 24.0407C9.85323 24.2282 9.59888 24.3336 9.33366 24.3336L4.667 24.3336C4.40178 24.3336 4.14743 24.2283 3.95989 24.0407C3.77235 23.8532 3.66699 23.5988 3.66699 23.3336V18.667C3.66699 18.4017 3.77235 18.1474 3.95989 17.9599L16.645 5.27473L16.6657 5.25405C16.8756 5.04414 17.0735 4.84615 17.2537 4.69323C17.4495 4.52701 17.689 4.3562 17.9975 4.25595Z" fill="currentColor"/>
</svg>
