<svg width="28" height="28" viewBox="0 0 28 28" fill="none" xmlns="http://www.w3.org/2000/svg">
<path d="M14.0003 17.4998L17.5003 13.9998M17.5003 13.9998L14.0003 10.4998M17.5003 13.9998H4.66699M4.66699 8.45586V8.40006C4.66699 7.09328 4.66699 6.43939 4.92131 5.94027C5.14501 5.50122 5.50171 5.14453 5.94076 4.92082C6.43988 4.6665 7.09376 4.6665 8.40055 4.6665H19.6006C20.9073 4.6665 21.5598 4.6665 22.059 4.92082C22.498 5.14453 22.8559 5.50122 23.0796 5.94027C23.3337 6.43891 23.3337 7.092 23.3337 8.39623V19.604C23.3337 20.9082 23.3337 21.5604 23.0796 22.059C22.8559 22.4981 22.498 22.8554 22.059 23.0791C21.5603 23.3332 20.9082 23.3332 19.6039 23.3332H8.39672C7.09249 23.3332 6.43939 23.3332 5.94076 23.0791C5.50171 22.8554 5.14501 22.4977 4.92131 22.0587C4.66699 21.5596 4.66699 20.9066 4.66699 19.5998V19.5415" stroke="currentColor" stroke-width="2" stroke-linecap="round" stroke-linejoin="round"/>
</svg>
