<svg width="28" height="28" viewBox="1 2 24 24" fill="none" xmlns="http://www.w3.org/2000/svg">
<path fill-rule="evenodd" clip-rule="evenodd" d="M4.83301 8.16675C4.83301 7.61446 5.28072 7.16675 5.83301 7.16675H22.1663C22.7186 7.16675 23.1663 7.61446 23.1663 8.16675C23.1663 8.71903 22.7186 9.16675 22.1663 9.16675H5.83301C5.28072 9.16675 4.83301 8.71903 4.83301 8.16675Z" fill="currentColor"/>
<path fill-rule="evenodd" clip-rule="evenodd" d="M4.83301 14C4.83301 13.4477 5.28072 13 5.83301 13H22.1663C22.7186 13 23.1663 13.4477 23.1663 14C23.1663 14.5523 22.7186 15 22.1663 15H5.83301C5.28072 15 4.83301 14.5523 4.83301 14Z" fill="currentColor"/>
<path fill-rule="evenodd" clip-rule="evenodd" d="M4.83301 19.8333C4.83301 19.281 5.28072 18.8333 5.83301 18.8333H22.1663C22.7186 18.8333 23.1663 19.281 23.1663 19.8333C23.1663 20.3855 22.7186 20.8333 22.1663 20.8333H5.83301C5.28072 20.8333 4.83301 20.3855 4.83301 19.8333Z" fill="currentColor"/>
</svg>
