<svg viewBox="0 0 28 28" fill="none" xmlns="http://www.w3.org/2000/svg">
<path d="M8.56387 1.27808C9.69151 1.09936 11.6261 0.875 14.2323 0.875C16.8386 0.875 18.7731 1.09936 19.9007 1.27808C20.7131 1.40683 21.2615 2.11444 21.2615 2.91409C21.2615 4.20733 20.7342 5.37711 19.8832 6.22055C19.8637 6.2244 19.8434 6.22837 19.8223 6.23245C19.5558 6.28407 19.1534 6.35419 18.6242 6.42472C17.5657 6.56588 16.0003 6.70874 14.0003 6.70874C12.0002 6.70874 10.4348 6.56588 9.37633 6.42472C9.11582 6.39001 8.8861 6.35536 8.68812 6.32298C7.77473 5.47319 7.20312 4.26056 7.20312 2.91409C7.20312 2.11444 7.75157 1.40683 8.56387 1.27808Z" fill="currentColor"/>
<path d="M7.82809 7.94716C7.83404 7.94832 7.83999 7.94949 7.84599 7.95066C8.1446 8.00846 8.58076 8.08418 9.14531 8.15943C10.2744 8.30999 11.9173 8.4588 14.0006 8.4588C16.0838 8.4588 17.7267 8.30999 18.8558 8.15943C19.4203 8.08418 19.8565 8.00846 20.1551 7.95066C20.3044 7.92172 20.4193 7.89734 20.4988 7.87966C20.5105 7.8771 20.5214 7.87465 20.5315 7.87231C22.0675 8.95008 23.3928 10.362 24.4211 11.9195C25.8958 14.1531 26.7742 16.7082 26.7742 19.0417C26.7742 22.0267 25.3363 24.0672 23.0362 25.3442C20.7566 26.6097 17.6364 27.1251 14.2326 27.1251C10.8288 27.1251 7.70856 26.6097 5.42895 25.3442C3.12883 24.0672 1.69092 22.0267 1.69092 19.0417C1.69092 16.7082 2.56931 14.1531 4.04403 11.9195C5.04871 10.3978 6.33685 9.01506 7.82809 7.94716Z" fill="currentColor"/>
</svg>
