<svg width="28" height="28" viewBox="0 0 28 28" fill="none" xmlns="http://www.w3.org/2000/svg">
<g clip-path="url(#clip0_79_820)">
<path fill-rule="evenodd" clip-rule="evenodd" d="M6.17782 6.1993C4.49672 7.8804 3.5 10.4502 3.5 14.0106C3.5 17.571 4.49672 20.1408 6.17782 21.8218C7.85892 23.503 10.4287 24.4996 13.9891 24.4996C17.5495 24.4996 20.1192 23.503 21.8004 21.8218C23.4814 20.1408 24.4782 17.571 24.4782 14.0106C24.4782 13.1821 25.1498 12.5106 25.9782 12.5106C26.8066 12.5106 27.4782 13.1821 27.4782 14.0106C27.4782 18.1232 26.3168 21.548 23.9216 23.9432C21.5264 26.3384 18.1017 27.4996 13.9891 27.4996C9.87648 27.4996 6.45168 26.3384 4.0565 23.9432C1.66131 21.548 0.5 18.1232 0.5 14.0106C0.5 9.89796 1.66131 6.47318 4.0565 4.07798C6.45168 1.6828 9.87648 0.521484 13.9891 0.521484C14.8175 0.521484 15.4891 1.19306 15.4891 2.02148C15.4891 2.84992 14.8175 3.52148 13.9891 3.52148C10.4287 3.52148 7.85892 4.5182 6.17782 6.1993ZM13.5338 7.64384C13.7171 8.45172 13.2108 9.25528 12.4029 9.43864C11.3201 9.68438 10.5773 10.1865 10.0872 10.8686C9.58484 11.5677 9.25488 12.5873 9.25488 14.0097C9.25488 15.7286 9.73368 16.8596 10.4365 17.5624C11.1393 18.2652 12.2703 18.744 13.9892 18.744C15.4813 18.744 16.5298 18.3814 17.2326 17.8352C17.9201 17.3009 18.4222 16.479 18.626 15.2613C18.7628 14.4442 19.536 13.8928 20.353 14.0295C21.1702 14.1663 21.7216 14.9395 21.5848 15.7566C21.2784 17.5873 20.4518 19.1329 19.0735 20.204C17.7105 21.2632 15.956 21.744 13.9892 21.744C11.7181 21.744 9.73202 21.1006 8.31514 19.6837C6.89826 18.2669 6.25488 16.2808 6.25488 14.0097C6.25488 12.1351 6.69118 10.4536 7.65096 9.11794C8.62298 7.76528 10.0382 6.89902 11.739 6.51302C12.5468 6.32968 13.3504 6.83596 13.5338 7.64384ZM18.9713 11.149L15.0499 15.0704C14.4641 15.6561 13.5144 15.6561 12.9286 15.0704C12.3428 14.4846 12.3428 13.5348 12.9286 12.949L16.8509 9.02678C16.4518 7.3467 16.9481 5.56888 18.1802 4.33676L21.2236 1.2933C21.4714 1.04538 21.8312 0.945402 22.1714 1.0298C22.5116 1.11421 22.783 1.37066 22.8862 1.7057L23.6896 4.31068L26.2946 5.11404C26.6296 5.21736 26.886 5.48858 26.9704 5.82888C27.0548 6.16916 26.955 6.5288 26.707 6.77672L23.6638 9.82012C22.431 11.0528 20.652 11.5491 18.9713 11.149Z" fill="currentColor"/>
</g>
<defs>
<clipPath id="clip0_79_820">
<rect width="28" height="28" fill="white"/>
</clipPath>
</defs>
</svg>
