<svg viewBox="0 0 28 28" fill="none" xmlns="http://www.w3.org/2000/svg">
<path d="M8.4378 18.8877L8.65352 21.7999C8.77158 23.3933 9.98323 24.785 11.6877 24.9571C12.3397 25.0229 13.1622 25.0832 14.0003 25.0832C14.8384 25.0832 15.6609 25.0229 16.3129 24.9571C18.0174 24.785 19.2291 23.3933 19.3471 21.7999L19.5628 18.8878C20.3385 19.0429 21.0565 19.2299 21.7013 19.4449C22.7023 19.7786 23.5755 20.1952 24.2164 20.7003C24.8475 21.1976 25.375 21.8836 25.375 22.7499C25.375 23.6161 24.8475 24.3021 24.2164 24.7995C23.5755 25.3045 22.7023 25.7212 21.7013 26.0548C19.6901 26.7252 16.9674 27.1249 14 27.1249C11.0326 27.1249 8.30987 26.7252 6.29866 26.0548C5.29766 25.7212 4.42446 25.3045 3.78354 24.7995C3.15249 24.3021 2.625 23.6161 2.625 22.7499C2.625 21.8836 3.15249 21.1976 3.78354 20.7003C4.42446 20.1952 5.29766 19.7786 6.29866 19.4449C6.94365 19.2299 7.66185 19.0427 8.4378 18.8877Z" fill="currentColor"/>
<path d="M14.0002 8.75008C16.0942 8.75008 17.7918 7.0525 17.7918 4.95842C17.7918 2.86434 16.0942 1.16675 14.0002 1.16675C11.9061 1.16675 10.2085 2.86434 10.2085 4.95842C10.2085 7.0525 11.9061 8.75008 14.0002 8.75008Z" fill="currentColor"/>
<path d="M14.0001 9.625C12.377 9.625 11.1893 9.6719 10.3797 9.72253C9.41655 9.78285 8.56062 10.336 8.15707 11.2272C7.76122 12.1014 7.2686 13.3869 6.96095 14.9066C6.7286 16.0543 7.6186 17.0472 8.7484 17.0963C9.05511 17.1096 9.39689 17.1232 9.77005 17.1359L10.1076 21.6923C10.1769 22.6284 10.8808 23.41 11.8339 23.5062C12.0216 23.5252 12.2226 23.5435 12.4328 23.5598C12.923 23.5979 13.3351 23.2192 13.3592 22.7377L13.5343 19.2354C13.5421 19.0802 13.6702 18.9583 13.8256 18.9583H14.1742C14.3296 18.9583 14.4577 19.0802 14.4655 19.2354L14.6406 22.7378C14.6646 23.2192 15.0768 23.5979 15.5669 23.5598C15.7773 23.5435 15.9783 23.5252 16.1661 23.5062C17.1192 23.41 17.8231 22.6284 17.8924 21.6923L18.2299 17.1359C18.603 17.1232 18.9448 17.1096 19.2514 17.0963C20.3812 17.0472 21.2712 16.0543 21.0388 14.9066C20.7312 13.3868 20.2385 12.1012 19.8427 11.2271C19.4391 10.3359 18.5832 9.78285 17.6201 9.72253C16.8106 9.6719 15.6232 9.625 14.0001 9.625Z" fill="currentColor"/>
</svg>
